# xmcd
#
# Track frame offsets:
#	183
#	21328
#	44010
#	65855
#	89490
#	110075
#	130410
#	153483
#	174478
#	204808
#	225183
#
# Disc length: 3371
#
# Revision: 2
# Processed by: cddbd v1.5.1PL0 Copyright (c) Steve Scherf et al.
# Submitted via: audiograbber 1.81.01
# Normalized: r1:DSETVAR1
#
DISCID=970d290b
DTITLE=Various Artist - ONE VOICE - THE SONGS OF CHAGE&ASKA
DYEAR=1996
DGENRE=Reggae
TTITLE0=Maxi Priest feat. Shaggy - As You Walked Away
TTITLE1=Chaka Khan - Raspberry
TTITLE2=Michael Hutchenge - Red hill
TTITLE3=Alejandro Sanz - Cancion De Amor Para Olvidarte
TTITLE4=Chage and Aska - The River
TTITLE5=Cathy Dennis - Love's A Cradle
TTITLE6=Apache Indian - Pride
TTITLE7=Boy George - Dream
TTITLE8=Chage and Aska - Castles In The Air
TTITLE9=Marianne Faithfull - Lies
TTITLE10=Wandy Matthews - Walk
EXTD=
EXTT0=
EXTT1=
EXTT2=
EXTT3=
EXTT4=
EXTT5=
EXTT6=
EXTT7=
EXTT8=
EXTT9=
EXTT10=
PLAYORDER=
